<svg viewBox="0 0 512 512" xmlns="http://www.w3.org/2000/svg">
<path d="M253,216.741c33.084,0,60-26.916,60-60V117H193v39.741C193,189.825,219.916,216.741,253,216.741z"/>
<path d="M68.227,326.741c8.271,0,15-6.729,15-15s-6.729-15-15-15s-15,6.729-15,15S59.956,326.741,68.227,326.741z"/>
<path d="M383.227,256.741c0,11.028,8.972,20,20,20s20-8.972,20-20c0-11.027-8.972-20-20-20S383.227,245.714,383.227,256.741z"/>
<path d="M124.671,171.347c7.529,9.791,20.335,15.305,29.754,18.211c1.935,0.597,3.319,2.296,3.505,4.313 c2.041,22.148,9.109,41.026,20.441,54.616c12.773,15.383,29.673,26.393,48.879,31.89c1.762,0.504,3.107,1.886,3.505,3.675    c2.604,11.717,2.421,23.964-0.561,37.202C228.042,331.36,223.249,342,218.236,352h70.114c-5.016-11-8.101-22.425-9.888-30.245 c-2.979-13.271-3.202-25.512-0.688-37.613c0.376-1.809,1.718-3.315,3.489-3.834c19.172-5.618,36.003-16.781,48.674-32.235 c10.726-13.009,16.68-30.22,18.746-54.148c0.174-2.017,1.547-3.736,3.478-4.345c13.63-4.298,25.215-11.41,30.991-19.018 c7.445-9.741,11.355-21.347,11.317-33.569l-0.325-70.243L363,66.848v74.894c0,2.762-2.238,5-5,5s-5-2.238-5-5v-79.86 l-0.062-25.459L153,37.035v24.688c0,0.33,0,0.657,0,0.977v79.041c0,2.762-2.239,5-5,5s-5-2.238-5-5V66.758l-30.17,0.099 l0.269,71.009C113.136,150.087,117.175,161.664,124.671,171.347z M191.051,67h124.352c2.762,0,5,2.239,5,5c0,2.762-2.238,5-5,5 H191.051c-2.761,0-5-2.238-5-5C186.051,69.239,188.29,67,191.051,67z M183,111.741c0-2.761,2.465-4.741,5.227-4.741h130 c2.762,0,4.773,1.98,4.773,4.741v45c0,38.599-31.402,70-70,70c-38.598,0-70-31.401-70-70V111.741z"/>
<polygon points="210.182,362 148,362 148,427 358,427 358,362 296.271,362"/>
<path d="M453.773,466H383v-29h-19.77H143.223H123v29H61.586c-2.761,0-5,2.238-5,5s2.239,5,5,5h392.187c2.762,0,5-2.238,5-5 S456.535,466,453.773,466z"/>
</svg>